<?xml version="1.0" encoding="iso-8859-1"?><!-- Generator: Adobe Illustrator 22.1.0, SVG Export Plug-In . SVG Version: 6.00 Build 0)  --><svg xmlns="http://www.w3.org/2000/svg" xmlns:xlink="http://www.w3.org/1999/xlink" viewBox="0 0 48 48" width="480px" height="480px"><g><polygon style="fill:#42A5F5;" points="42,38 17,38 17,5 34,5 42,13  "/><polygon style="fill:#E1F5FE;" points="40.5,14 33,14 33,6.5  "/><rect x="22" y="19" style="fill:#1565C0;" width="16" height="2"/><rect x="22" y="23" style="fill:#1565C0;" width="12" height="2"/><rect x="22" y="27" style="fill:#1565C0;" width="16" height="2"/><rect x="22" y="31" style="fill:#1565C0;" width="12" height="2"/></g><g><polygon style="fill:#90CAF9;" points="31,43 6,43 6,10 23,10 31,18  "/><polygon style="fill:#E1F5FE;" points="29.5,19 22,19 22,11.5  "/><rect x="11" y="24" style="fill:#1976D2;" width="15" height="2"/><rect x="11" y="28" style="fill:#1976D2;" width="11" height="2"/><rect x="11" y="32" style="fill:#1976D2;" width="15" height="2"/><rect x="11" y="36" style="fill:#1976D2;" width="11" height="2"/></g></svg>